<?xml version="1.0" standalone="no"?>
<!DOCTYPE svg PUBLIC "-//W3C//DTD SVG 20010904//EN"
 "http://www.w3.org/TR/2001/REC-SVG-20010904/DTD/svg10.dtd">
<svg version="1.0" xmlns="http://www.w3.org/2000/svg"
 width="512.000000pt" height="512.000000pt" viewBox="0 0 512.000000 512.000000"
 preserveAspectRatio="xMidYMid meet">
<metadata>
Created by potrace 1.11, written by Peter Selinger 2001-2013
</metadata>
<g transform="translate(0.000000,512.000000) scale(0.100000,-0.100000)"
fill="#000000" stroke="none">
<path d="M1221 4724 c-136 -37 -276 -150 -339 -274 -65 -130 -62 -34 -62
-1890 0 -1445 2 -1695 15 -1755 40 -189 185 -347 374 -405 61 -19 99 -20 1351
-20 1252 0 1290 1 1351 20 189 58 334 216 374 407 12 57 15 289 15 1469 0 948
-3 1411 -10 1431 -7 19 -171 184 -462 464 -248 239 -484 464 -525 502 l-73 67
-978 -1 c-820 0 -986 -3 -1031 -15z m1831 -496 c4 -253 5 -266 29 -330 69
-178 213 -308 389 -348 36 -9 126 -13 265 -12 115 1 231 -1 258 -4 l47 -6 0
-1338 0 -1338 -33 -63 c-20 -40 -48 -75 -75 -96 -88 -67 -17 -64 -1398 -61
l-1249 3 -54 30 c-29 16 -68 47 -87 68 -69 81 -64 -50 -64 1828 0 1852 -3
1738 56 1816 30 39 87 79 141 99 31 11 202 13 905 14 l866 0 4 -262z"/>
<path d="M1851 4199 c-47 -19 -124 -83 -152 -127 -37 -58 -54 -136 -41 -183 8
-31 7 -37 -9 -47 -11 -7 -19 -23 -19 -35 0 -31 29 -118 46 -138 8 -8 20 -37
28 -63 22 -74 61 -122 122 -152 87 -42 189 -31 252 29 26 24 65 96 76 140 3
15 13 27 20 27 28 0 70 152 49 174 -5 4 -7 51 -5 104 3 107 -12 157 -56 178
-13 6 -38 25 -55 42 -18 17 -49 38 -69 46 -41 18 -149 20 -187 5z"/>
<path d="M1670 3400 c-30 -16 -90 -43 -133 -61 -128 -52 -154 -100 -164 -306
l-6 -113 567 0 567 0 -6 113 c-12 198 -43 261 -151 302 -27 10 -84 36 -128 57
-43 22 -82 36 -86 31 -4 -4 -31 -86 -61 -180 -29 -95 -56 -173 -59 -173 -3 0
-15 28 -26 63 l-20 62 23 40 c29 51 29 80 1 99 -31 22 -91 20 -111 -2 -22 -25
-21 -47 5 -100 21 -44 21 -45 3 -99 -10 -30 -22 -56 -25 -58 -4 -2 -32 77 -64
175 -31 99 -60 180 -64 180 -4 -1 -32 -14 -62 -30z"/>
<path d="M1444 2671 c-42 -19 -74 -67 -74 -111 0 -34 29 -87 58 -107 26 -17
83 -18 1142 -18 l1115 0 32 23 c43 31 61 87 44 141 -7 25 -24 49 -44 63 l-32
23 -1100 2 c-1054 3 -1102 2 -1141 -16z"/>
<path d="M1441 2162 c-38 -20 -71 -73 -71 -112 0 -33 32 -84 67 -107 26 -17
86 -18 1118 -21 991 -2 1094 -1 1133 14 76 29 104 112 62 182 -40 65 21 62
-1182 62 -1040 0 -1095 -1 -1127 -18z"/>
<path d="M1441 1652 c-37 -19 -71 -72 -71 -112 0 -32 32 -84 65 -106 24 -16
108 -17 1130 -17 855 1 1112 3 1135 13 64 26 88 115 50 178 -40 65 21 62
-1182 62 -1021 0 -1095 -1 -1127 -18z"/>
<path d="M1423 1140 c-79 -48 -82 -150 -7 -209 26 -21 33 -21 668 -21 693 1
669 -1 707 56 37 57 20 131 -40 171 l-34 23 -631 0 c-608 0 -632 -1 -663 -20z"/>
</g>
</svg>
